<svg xmlns="http://www.w3.org/2000/svg" version="1.1" xmlns:xlink="http://www.w3.org/1999/xlink" xmlns:svgjs="http://svgjs.com/svgjs" width="512" height="512" x="0" y="0" viewBox="0 0 31.82 31.82" style="enable-background:new 0 0 512 512" xml:space="preserve" class=""><g>
<g xmlns="http://www.w3.org/2000/svg">
	<path d="M19.427,15.983c-0.697,0.667-1.432,1.57-2.1,2.781c-0.66-2.383-1.492-4.13-2.333-5.409C18.853,0.462,0.046,0,0.046,0   s0.549,16.114,10.371,15.744c-0.02-1.079-0.187-2.17-0.421-3.193c-0.153-0.667-0.335-1.303-0.523-1.89   C8.845,8.714,8.136,7.332,8.136,7.332c0.716,0.962,1.35,1.88,1.91,2.743c1.927,2.965,2.979,5.271,3.468,6.489   c1.207,2.593,2.291,6.858,2.291,13.828c0,0.789,0.641,1.428,1.427,1.428c0.788,0,1.428-0.639,1.428-1.428   c0-2.259-0.109-4.269-0.306-6.062c0.455-2.188,1.142-3.741,1.853-4.841c0.467-0.891,1.328-2.417,2.488-3.975   c1.033-1.386,2.307-2.798,3.748-3.806c0,0-2.955,3.271-3.146,6.473c8.162,0.426,8.479-12.415,8.479-12.415   S16.839,6.276,19.427,15.983z" fill="#ffffff" data-original="#000000" class=""></path>
</g>
<g xmlns="http://www.w3.org/2000/svg">
</g>
<g xmlns="http://www.w3.org/2000/svg">
</g>
<g xmlns="http://www.w3.org/2000/svg">
</g>
<g xmlns="http://www.w3.org/2000/svg">
</g>
<g xmlns="http://www.w3.org/2000/svg">
</g>
<g xmlns="http://www.w3.org/2000/svg">
</g>
<g xmlns="http://www.w3.org/2000/svg">
</g>
<g xmlns="http://www.w3.org/2000/svg">
</g>
<g xmlns="http://www.w3.org/2000/svg">
</g>
<g xmlns="http://www.w3.org/2000/svg">
</g>
<g xmlns="http://www.w3.org/2000/svg">
</g>
<g xmlns="http://www.w3.org/2000/svg">
</g>
<g xmlns="http://www.w3.org/2000/svg">
</g>
<g xmlns="http://www.w3.org/2000/svg">
</g>
<g xmlns="http://www.w3.org/2000/svg">
</g>
</g></svg>